<?xml version="1.0" encoding="UTF-8" standalone="no"?>
<!-- Created with Inkscape (http://www.inkscape.org/) -->

<svg
   width="800"
   height="600"
   viewBox="0 0 211.66666 158.75"
   version="1.1"
   id="svg1"
   inkscape:version="1.3 (0e150ed, 2023-07-21)"
   xml:space="preserve"
   sodipodi:docname="PhysiFun Logo 800x600.svg"
   inkscape:export-filename="PhysiFun Logo 800x600.png"
   inkscape:export-xdpi="96"
   inkscape:export-ydpi="96"
   xmlns:inkscape="http://www.inkscape.org/namespaces/inkscape"
   xmlns:sodipodi="http://sodipodi.sourceforge.net/DTD/sodipodi-0.dtd"
   xmlns="http://www.w3.org/2000/svg"
   xmlns:svg="http://www.w3.org/2000/svg"><sodipodi:namedview
     id="namedview1"
     pagecolor="#ffffff"
     bordercolor="#000000"
     borderopacity="0.25"
     inkscape:showpageshadow="2"
     inkscape:pageopacity="0.0"
     inkscape:pagecheckerboard="false"
     inkscape:deskcolor="#d1d1d1"
     inkscape:document-units="px"
     inkscape:zoom="0.84111282"
     inkscape:cx="469.61595"
     inkscape:cy="285.33628"
     inkscape:window-width="1920"
     inkscape:window-height="1027"
     inkscape:window-x="0"
     inkscape:window-y="25"
     inkscape:window-maximized="0"
     inkscape:current-layer="layer1" /><defs
     id="defs1"><rect
       x="197.105"
       y="227.42885"
       width="556.65918"
       height="175.44511"
       id="rect1" /></defs><g
     inkscape:label="Layer 1"
     inkscape:groupmode="layer"
     id="layer1"><rect
       style="fill:#ffffff;stroke:none;stroke-width:1.5875;stroke-linecap:round;fill-opacity:1"
       id="rect2"
       width="211.66666"
       height="158.75"
       x="0"
       y="0" /><g
       id="g31"
       transform="matrix(0.99948168,0,0,0.99948168,1.5414118,6.0118284)"><path
         d="m 170.26573,50.061111 c 0.58471,0 1.13962,0.04788 1.66466,0.143335 0.52505,0.09547 1.0204,0.238494 1.48578,0.429419 0.2327,0.09547 0.45811,0.202883 0.67589,0.322212 0.21777,0.119328 0.42758,0.250684 0.63044,0.393878 0.40571,0.286389 0.78198,0.620323 1.12802,1.002174 0.17602,0.187943 0.34067,0.384976 0.49469,0.590817 0.15401,0.205843 0.2974,0.420681 0.42941,0.644423 0.26402,0.447481 0.48356,0.930578 0.65958,1.449656 0.176,0.51908 0.3082,1.073984 0.39621,1.66466 0.0879,0.590676 0.13225,1.217386 0.13225,1.87966 v 11.670092 h -6.08587 V 59.404644 c 0,-0.33412 -0.0214,-0.64941 -0.0647,-0.946241 -0.0433,-0.296829 -0.1087,-0.57541 -0.1952,-0.834951 -0.0865,-0.259539 -0.19418,-0.500248 -0.32396,-0.722498 -0.12976,-0.222249 -0.28145,-0.425667 -0.45447,-0.610628 -0.17302,-0.184958 -0.36116,-0.347218 -0.56401,-0.485937 -0.20286,-0.13872 -0.42048,-0.254203 -0.65316,-0.346683 -0.2327,-0.09248 -0.48038,-0.161769 -0.7429,-0.20801 -0.26252,-0.04624 -0.53968,-0.06933 -0.83204,-0.06933 -0.29235,0 -0.57009,0.02309 -0.83262,0.06933 -0.26252,0.04624 -0.51019,0.115531 -0.74289,0.20801 -0.23268,0.09248 -0.45031,0.207963 -0.65316,0.346683 -0.20286,0.138719 -0.39041,0.300979 -0.56343,0.485937 -0.17303,0.184961 -0.32471,0.388379 -0.45448,0.610628 -0.12976,0.22225 -0.23803,0.462959 -0.32454,0.722498 -0.0865,0.259541 -0.15135,0.538122 -0.19461,0.834951 -0.0433,0.296831 -0.0647,0.612121 -0.0647,0.946241 V 70.251437 H 158.0945 V 50.276113 h 6.12142 v 2.648771 c 0.15514,-0.220758 0.32378,-0.429467 0.50575,-0.626359 0.18198,-0.196893 0.37733,-0.381665 0.58616,-0.554692 0.20883,-0.173027 0.43089,-0.334447 0.66656,-0.483608 0.23568,-0.14916 0.48503,-0.286062 0.74756,-0.411357 0.26252,-0.131262 0.5327,-0.24649 0.81164,-0.344935 0.27893,-0.09844 0.56642,-0.180252 0.86175,-0.245882 0.29534,-0.06563 0.59896,-0.114598 0.9107,-0.147414 0.31174,-0.03281 0.63149,-0.04953 0.95964,-0.04953 z"
         style="font-weight:bold;font-size:67.1114px;font-family:Poppins;-inkscape-font-specification:'Poppins Bold';white-space:pre;fill:#228afc;fill-opacity:1;stroke-width:0.533421"
         id="path14" /><path
         d="m 131.92291,31.127557 5.95334,1.26328 -2.25152,10.610541 c -0.0693,0.326842 -0.11385,0.639711 -0.13312,0.939063 -0.0193,0.299352 -0.0136,0.585324 0.017,0.857162 0.0308,0.271838 0.0867,0.52978 0.16749,0.774126 0.0808,0.244349 0.1864,0.474699 0.31726,0.691545 0.13086,0.216846 0.28121,0.414622 0.45086,0.592429 0.16965,0.177807 0.35855,0.335946 0.56697,0.474711 0.20843,0.138767 0.43633,0.257959 0.68354,0.357687 0.2472,0.09973 0.5141,0.179976 0.80008,0.240661 0.29184,0.06192 0.57294,0.09796 0.84371,0.108151 0.27078,0.01015 0.53098,-0.0054 0.78071,-0.04697 0.24974,-0.04155 0.48904,-0.108817 0.71773,-0.2021 0.2287,-0.09328 0.44667,-0.212902 0.65431,-0.357916 0.20766,-0.145015 0.39825,-0.312518 0.57134,-0.502989 0.17307,-0.190473 0.32894,-0.403464 0.46744,-0.639393 0.13847,-0.235936 0.25976,-0.494985 0.36369,-0.77637 0.10396,-0.281379 0.19037,-0.585352 0.25973,-0.912195 l 2.25152,-10.610541 5.98809,1.270655 -4.14638,19.540242 -5.98809,-1.270654 0.56469,-2.661184 c -0.19757,0.183747 -0.40703,0.354371 -0.62799,0.511811 -0.22097,0.157438 -0.45324,0.301587 -0.69758,0.432717 -0.24436,0.131127 -0.5007,0.249134 -0.76844,0.353951 -0.26773,0.104825 -0.54688,0.196351 -0.838,0.274859 -0.28404,0.07391 -0.57202,0.130595 -0.86386,0.169308 -0.29182,0.03871 -0.58757,0.05959 -0.88718,0.0631 -0.29962,0.0035 -0.60323,-0.01082 -0.91063,-0.04254 -0.30738,-0.03168 -0.61846,-0.08061 -0.93363,-0.147479 -0.37353,-0.07926 -0.73204,-0.176969 -1.075,-0.292441 -0.34298,-0.115471 -0.67059,-0.248695 -0.98302,-0.400385 -0.31242,-0.151682 -0.60946,-0.321694 -0.89133,-0.509591 -0.28187,-0.187895 -0.54861,-0.393548 -0.79992,-0.617654 -0.25007,-0.229943 -0.48032,-0.474815 -0.69054,-0.734423 -0.21024,-0.259611 -0.40062,-0.534142 -0.57101,-0.823418 -0.1704,-0.289277 -0.32034,-0.593348 -0.4509,-0.912291 -0.13054,-0.318942 -0.24121,-0.652796 -0.33191,-1.001406 -0.0907,-0.348609 -0.15889,-0.70702 -0.20432,-1.074993 -0.0454,-0.367971 -0.0685,-0.745836 -0.0687,-1.133173 -1.1e-4,-0.387326 0.0223,-0.78396 0.0674,-1.19066 0.0452,-0.406695 0.11337,-0.823221 0.20377,-1.249283 z"
         style="font-weight:bold;font-size:67.1114px;font-family:Poppins;-inkscape-font-specification:'Poppins Bold';white-space:pre;fill:#228afc;fill-opacity:1;stroke-width:0.533421"
         id="path13" /><path
         d="m 104.07262,61.590831 6.93939,24.153617 5.88399,-1.690476 -2.80737,-9.771544 7.36295,-2.115384 -1.31464,-4.575809 -7.36295,2.115383 -1.46299,-5.092132 9.83987,-2.827003 -1.35437,-4.714131 z"
         style="font-weight:bold;font-size:67.1114px;font-family:Poppins;-inkscape-font-specification:'Poppins Bold';white-space:pre;fill:#228afc;fill-opacity:1;stroke-width:0.533421"
         id="path12" /><path
         d="m 91.890988,50.276113 h 6.121423 v 19.975324 h -6.121423 z"
         style="font-weight:bold;font-size:67.1114px;font-family:Poppins;-inkscape-font-specification:'Poppins Bold';white-space:pre;stroke-width:0.533421"
         id="path11" /><path
         d="m 79.612016,49.989444 c -0.423616,0 -0.832971,0.01697 -1.228246,0.05127 -0.395277,0.03431 -0.776826,0.08579 -1.143762,0.154406 -0.366935,0.06861 -0.719515,0.154615 -1.05811,0.257535 -0.338594,0.10292 -0.662788,0.222856 -0.973041,0.360084 -0.304289,0.137227 -0.590935,0.287228 -0.859423,0.449813 -0.26849,0.162586 -0.51894,0.338199 -0.751631,0.526142 -0.232691,0.187943 -0.44753,0.388005 -0.644423,0.601305 -0.196892,0.2133 -0.376117,0.439558 -0.537211,0.678216 -0.155127,0.23269 -0.290935,0.472304 -0.40728,0.718419 -0.116345,0.246115 -0.213184,0.498501 -0.290747,0.758041 -0.07756,0.25954 -0.135434,0.525862 -0.174216,0.798826 -0.03878,0.272964 -0.05827,0.552641 -0.05827,0.83903 0,0.340087 0.02142,0.663183 0.06467,0.968963 0.04325,0.30578 0.108095,0.59436 0.194608,0.865833 0.08651,0.271473 0.194772,0.526118 0.324542,0.763284 0.129771,0.237166 0.281448,0.456712 0.454475,0.659571 0.173026,0.196892 0.354187,0.38141 0.543621,0.552944 0.189434,0.171535 0.386723,0.330438 0.592565,0.476616 0.205842,0.146178 0.419843,0.279467 0.642092,0.400287 0.222249,0.12082 0.45296,0.229078 0.691617,0.324542 0.477315,0.178993 1.014411,0.354863 1.611053,0.527889 0.596644,0.173026 1.252837,0.34335 1.968808,0.51041 0.668241,0.167061 1.244305,0.327898 1.727586,0.483025 0.483281,0.155127 0.873989,0.304289 1.172312,0.447482 0.14916,0.06563 0.279677,0.14105 0.391548,0.226073 0.111872,0.08503 0.205096,0.179925 0.279675,0.284338 0.07459,0.104408 0.130517,0.218218 0.167807,0.342022 0.03729,0.123802 0.05594,0.257092 0.05594,0.400287 0,0.119328 -0.01335,0.233716 -0.04021,0.342603 -0.02685,0.108884 -0.06749,0.212695 -0.121193,0.31114 -0.107396,0.196893 -0.268234,0.372763 -0.483024,0.527891 -0.202861,0.143192 -0.450536,0.250614 -0.742892,0.32221 -0.292356,0.0716 -0.629647,0.107215 -1.011498,0.107215 -0.208825,0 -0.409469,-0.01335 -0.601887,-0.04021 -0.192418,-0.02685 -0.376352,-0.06692 -0.552362,-0.12061 -0.176009,-0.05369 -0.343815,-0.121054 -0.503417,-0.2016 -0.159603,-0.08055 -0.31128,-0.174613 -0.454475,-0.282007 -0.143194,-0.107396 -0.270355,-0.22288 -0.382225,-0.346683 -0.111872,-0.123805 -0.208453,-0.255998 -0.288999,-0.396209 -0.08055,-0.140211 -0.145385,-0.288534 -0.194608,-0.445152 -0.04923,-0.156619 -0.08291,-0.321069 -0.1008,-0.494096 h -6.049757 c 0.02387,0.322188 0.06922,0.636637 0.136343,0.943909 0.06712,0.307272 0.155896,0.607272 0.266275,0.899626 0.110384,0.292356 0.242573,0.577323 0.396209,0.854763 0.153635,0.277439 0.328666,0.547374 0.525559,0.809897 0.196892,0.256556 0.41173,0.499782 0.644421,0.72949 0.232691,0.229707 0.483142,0.445641 0.751631,0.648501 0.26849,0.202858 0.555136,0.392665 0.859424,0.568676 0.304288,0.176009 0.626546,0.338524 0.966633,0.487685 0.340085,0.14916 0.691826,0.279677 1.055779,0.391548 0.363952,0.111872 0.740211,0.205096 1.128029,0.279677 0.387818,0.07457 0.787431,0.130515 1.199113,0.167805 0.411685,0.03729 0.835232,0.05594 1.270781,0.05594 0.405718,0 0.798944,-0.01671 1.179304,-0.04953 0.38036,-0.03281 0.747972,-0.08178 1.102975,-0.147413 0.355003,-0.06563 0.697001,-0.148019 1.026647,-0.246465 0.329646,-0.09844 0.646612,-0.213091 0.9509,-0.344352 0.310254,-0.131262 0.602191,-0.274293 0.875155,-0.42942 0.272965,-0.155128 0.527028,-0.322095 0.762702,-0.501088 0.235673,-0.178992 0.453029,-0.369896 0.651413,-0.572754 0.198384,-0.202858 0.377867,-0.417697 0.53896,-0.644421 0.167061,-0.232692 0.313449,-0.473143 0.438744,-0.720751 0.125295,-0.247607 0.229358,-0.502509 0.312888,-0.765032 0.08353,-0.262524 0.146433,-0.532458 0.188199,-0.809897 0.04176,-0.277439 0.06293,-0.562406 0.06293,-0.854762 -0.006,-0.346053 -0.0341,-0.67444 -0.08332,-0.984695 C 87.999691,63.157268 87.92931,62.865075 87.83683,62.590619 87.744351,62.316163 87.629963,62.059583 87.494227,61.820925 87.35849,61.582268 87.201264,61.3613 87.022271,61.158441 86.849245,60.949617 86.668924,60.755939 86.48098,60.576947 86.293038,60.397954 86.097684,60.23376 85.894826,60.0846 85.691967,59.93544 85.481579,59.801309 85.263805,59.681982 85.04603,59.562654 84.82061,59.458007 84.587919,59.36851 84.122537,59.177583 83.588797,58.986683 82.986188,58.795756 82.383578,58.604829 81.712352,58.413927 80.972516,58.223002 80.32814,58.079806 79.76711,57.936775 79.289794,57.793581 c -0.477315,-0.143194 -0.871379,-0.286227 -1.181634,-0.42942 -0.14916,-0.0716 -0.279677,-0.152307 -0.391547,-0.241804 -0.111872,-0.08949 -0.205097,-0.188013 -0.279677,-0.295409 -0.07458,-0.107396 -0.130516,-0.223718 -0.167805,-0.349012 -0.03729,-0.125295 -0.05594,-0.259424 -0.05594,-0.402619 0,-0.238657 0.04787,-0.450721 0.143334,-0.635681 0.09547,-0.18496 0.238494,-0.343023 0.429421,-0.474286 0.190924,-0.143192 0.423569,-0.250614 0.698026,-0.32221 0.274456,-0.0716 0.591165,-0.107215 0.949152,-0.107215 0.417649,0 0.793328,0.05065 1.127447,0.152075 0.167059,0.05071 0.323447,0.114457 0.469624,0.190529 0.146177,0.07607 0.281984,0.164846 0.40728,0.266276 0.13126,0.101431 0.249261,0.211622 0.353673,0.33095 0.104419,0.119328 0.195121,0.247327 0.272685,0.384555 0.07756,0.137229 0.142146,0.283616 0.192861,0.438743 0.05071,0.155127 0.088,0.319322 0.111872,0.492348 h 5.655878 c -0.05369,-0.513113 -0.146085,-1.001243 -0.277347,-1.463641 -0.13126,-0.462399 -0.301001,-0.899301 -0.509826,-1.310985 -0.208826,-0.411684 -0.456503,-0.797942 -0.742892,-1.15891 -0.286389,-0.36097 -0.612003,-0.696583 -0.975955,-1.006836 -0.357986,-0.310254 -0.749534,-0.581868 -1.174642,-0.814558 -0.425108,-0.232691 -0.883429,-0.426368 -1.37566,-0.581495 -0.49223,-0.155127 -1.017906,-0.271449 -1.57726,-0.349013 -0.559353,-0.07756 -1.152384,-0.116532 -1.77886,-0.116532 z"
         style="font-weight:bold;font-size:67.1114px;font-family:Poppins;-inkscape-font-specification:'Poppins Bold';white-space:pre;stroke-width:0.533421"
         id="path10" /><path
         d="m 47.034926,50.276113 h 6.837513 l 4.618162,12.493391 4.582618,-12.493391 H 69.69573 L 57.166214,79.738304 h -6.586968 l 4.582036,-10.166831 z"
         style="font-weight:bold;font-size:67.1114px;font-family:Poppins;-inkscape-font-specification:'Poppins Bold';white-space:pre;stroke-width:0.533421"
         id="path9" /><path
         d="m 25.162462,43.760812 v 26.490625 h 6.121424 V 59.404644 c 0,-0.33412 0.02142,-0.64941 0.06467,-0.946241 0.04325,-0.296829 0.108095,-0.57541 0.194609,-0.834951 0.08652,-0.259539 0.194772,-0.500248 0.324541,-0.722498 0.12977,-0.222249 0.281448,-0.425667 0.454476,-0.610628 0.173026,-0.184958 0.360572,-0.347218 0.563431,-0.485937 0.202859,-0.13872 0.421053,-0.254203 0.653744,-0.346683 0.232691,-0.09248 0.479786,-0.161769 0.742309,-0.20801 0.262523,-0.04624 0.540266,-0.06933 0.83262,-0.06933 0.292355,0 0.569516,0.02309 0.832039,0.06933 0.262522,0.04624 0.510201,0.115531 0.742891,0.20801 0.232691,0.09248 0.450885,0.207963 0.653745,0.346683 0.202858,0.138719 0.390405,0.300979 0.563431,0.485937 0.173028,0.184961 0.324705,0.388379 0.454475,0.610628 0.12977,0.22225 0.238027,0.462959 0.324542,0.722498 0.08651,0.259541 0.151351,0.538122 0.194608,0.834951 0.04326,0.296831 0.06467,0.612121 0.06467,0.946241 v 10.846793 h 6.085881 V 58.581345 c 0,-0.662274 -0.04342,-1.288984 -0.129933,-1.87966 -0.08651,-0.590676 -0.216191,-1.14558 -0.389217,-1.66466 -0.173026,-0.519078 -0.389543,-1.002175 -0.649082,-1.449656 -0.129771,-0.223742 -0.270449,-0.43858 -0.421847,-0.644423 -0.151398,-0.205841 -0.313494,-0.402874 -0.48652,-0.590817 -0.346053,-0.381851 -0.720052,-0.715785 -1.122786,-1.002174 -0.402734,-0.286389 -0.83409,-0.525163 -1.293505,-0.71609 -0.459414,-0.190925 -0.946962,-0.333956 -1.463058,-0.429419 -0.516096,-0.09547 -1.061001,-0.143335 -1.633778,-0.143335 -0.33412,0 -0.65999,0.01671 -0.977703,0.04953 -0.317712,0.03281 -0.626872,0.08178 -0.928177,0.147414 -0.301305,0.06563 -0.594337,0.147436 -0.879233,0.245881 -0.284898,0.09844 -0.561802,0.213674 -0.83029,0.344936 -0.268491,0.13126 -0.522553,0.273453 -0.762702,0.427089 -0.24015,0.153635 -0.466409,0.318667 -0.678217,0.494678 -0.211808,0.17601 -0.409679,0.363299 -0.593147,0.561683 -0.183467,0.198386 -0.35237,0.407932 -0.507496,0.628691 v -9.200197 z"
         style="font-weight:bold;font-size:67.1114px;font-family:Poppins;-inkscape-font-specification:'Poppins Bold';white-space:pre;stroke-width:0.533421"
         id="path8" /><path
         d="m 2.8238698,45.12074 v 25.130697 h 6.121424 v -9.021321 h 3.7948632 c 0.513113,0 1.005111,-0.02309 1.476459,-0.06933 0.471348,-0.04624 0.922188,-0.115529 1.35177,-0.208009 0.429583,-0.09248 0.838099,-0.207963 1.225917,-0.346682 0.387818,-0.138721 0.754591,-0.300396 1.100643,-0.485356 0.346054,-0.184959 0.66999,-0.384509 0.971295,-0.597809 0.301304,-0.2133 0.580143,-0.440654 0.836699,-0.682295 0.256557,-0.24164 0.49088,-0.497382 0.702688,-0.767363 0.211808,-0.26998 0.401034,-0.554109 0.568093,-0.852431 0.167061,-0.304288 0.313448,-0.615965 0.438743,-0.935169 0.125295,-0.319204 0.229358,-0.645913 0.312888,-0.980033 0.08353,-0.33412 0.146434,-0.675862 0.188199,-1.024899 0.04176,-0.349036 0.06234,-0.705229 0.06234,-1.06918 0,-0.393785 -0.02142,-0.77643 -0.06468,-1.14784 -0.04325,-0.371411 -0.108094,-0.731797 -0.194608,-1.080835 -0.08651,-0.349035 -0.194772,-0.686582 -0.324541,-1.013245 -0.129771,-0.326661 -0.280866,-0.642534 -0.453893,-0.946822 -0.173026,-0.304288 -0.368124,-0.592029 -0.584407,-0.863502 -0.216284,-0.271472 -0.453636,-0.526375 -0.713176,-0.765031 -0.25954,-0.238658 -0.540895,-0.461304 -0.843691,-0.667146 -0.302796,-0.205842 -0.627571,-0.395067 -0.973625,-0.568093 -0.346053,-0.173027 -0.711148,-0.324122 -1.095982,-0.453892 -0.384836,-0.12977 -0.788899,-0.238028 -1.212516,-0.324542 -0.423616,-0.08651 -0.866648,-0.151351 -1.329046,-0.194608 -0.462399,-0.04325 -0.944399,-0.06526 -1.445579,-0.06526 z m 6.121424,4.940371 h 3.3293172 c 0.292355,0 0.566485,0.01697 0.821551,0.05128 0.255064,0.03431 0.491321,0.08579 0.709096,0.154405 0.217776,0.06861 0.416741,0.154615 0.597226,0.257536 0.180485,0.102919 0.342161,0.222856 0.485356,0.360083 0.143193,0.137229 0.26842,0.288906 0.375816,0.454475 0.107396,0.165568 0.197008,0.345051 0.268605,0.53896 0.0716,0.193909 0.125599,0.40178 0.161398,0.624029 0.0358,0.222249 0.0536,0.45909 0.0536,0.70968 0,0.25059 -0.0178,0.486846 -0.0536,0.709096 -0.0358,0.222251 -0.0898,0.430119 -0.161398,0.624029 -0.0716,0.193909 -0.161209,0.373974 -0.268605,0.539542 -0.107396,0.165569 -0.232623,0.316664 -0.375816,0.453893 -0.143195,0.137228 -0.304871,0.257746 -0.485356,0.360666 -0.180485,0.10292 -0.37945,0.188339 -0.597226,0.256953 -0.217775,0.06861 -0.454032,0.120098 -0.709096,0.154404 -0.255066,0.03431 -0.529196,0.05128 -0.821551,0.05128 H 8.9452938 Z"
         style="font-weight:bold;font-size:67.1114px;font-family:Poppins;-inkscape-font-specification:'Poppins Bold';white-space:pre;stroke-width:0.533421"
         id="path7" /><circle
         style="fill:none;stroke:#fb6363;stroke-width:1.78993;stroke-dasharray:none;stroke-opacity:1"
         id="path1"
         cx="206.35657"
         cy="60.820572"
         r="8.1219034"
         transform="rotate(15.444754)" /><circle
         style="fill:none;stroke:#fb6363;stroke-width:1.78993;stroke-dasharray:none;stroke-opacity:1"
         id="path2"
         cx="206.35657"
         cy="60.820572"
         r="11.788389"
         transform="rotate(15.444754)" /><circle
         style="fill:none;stroke:#fb6363;stroke-width:1.78993;stroke-dasharray:none;stroke-opacity:1"
         id="path3"
         cx="206.35657"
         cy="60.820572"
         r="1.44884"
         transform="rotate(15.444754)" /><path
         style="fill:none;stroke:#fb6363;stroke-width:1.78993;stroke-dasharray:none;stroke-opacity:1"
         d="M 173.26334,106.52374 152.81903,85.355478 c 5.70563,-3.534024 7.60365,-4.939689 9.64838,-10.948919 l 39.91105,23.353661 c 5.72151,8.80043 1.56717,18.14099 -8.30831,18.95798"
         id="path4"
         sodipodi:nodetypes="ccccc" /><path
         style="fill:none;stroke:#fb6363;stroke-width:1.78993;stroke-dasharray:none;stroke-opacity:1"
         d="m 181.98097,85.685304 1.94088,-3.695341 6.4123,3.427468 -2.03533,4.037206"
         id="path5" /><path
         style="fill:none;stroke:#fb6363;stroke-width:1.78993;stroke-dasharray:none;stroke-opacity:1"
         d="m 187.24607,83.276363 c 2.40397,-3.94366 5.80557,0.88908 9.12466,1.60112"
         id="path6"
         sodipodi:nodetypes="cc" /><circle
         style="fill:#fb6363;fill-opacity:1;stroke:none;stroke-width:1.96249;stroke-dasharray:none;stroke-opacity:1"
         id="path15"
         cx="94.951698"
         cy="43.334244"
         r="4.958056" /><path
         style="fill:none;fill-opacity:1;stroke:#fdda24;stroke-width:1.78993;stroke-linecap:round;stroke-dasharray:none;stroke-opacity:1"
         d="m 107.43522,45.922445 c -1.7195,-0.435575 -3.42872,-0.757473 -5.11686,-0.946522"
         id="path31" /><path
         style="fill:none;fill-opacity:1;stroke:#fdda24;stroke-width:1.78993;stroke-linecap:round;stroke-dasharray:none;stroke-opacity:1"
         d="m 116.4962,49.149559 c -1.27832,-0.57492 -2.5614,-1.105699 -3.8448,-1.584499"
         id="path30" /><path
         style="fill:none;fill-opacity:1;stroke:#fdda24;stroke-width:1.78993;stroke-linecap:round;stroke-dasharray:none;stroke-opacity:1"
         d="m 124.09905,53.080691 c -1.19429,-0.693127 -2.40118,-1.359963 -3.61673,-1.993527"
         id="path29" /><path
         style="fill:none;fill-opacity:1;stroke:#fdda24;stroke-width:1.78993;stroke-linecap:round;stroke-dasharray:none;stroke-opacity:1"
         d="m 131.42963,57.73722 c -1.24852,-0.858522 -2.5228,-1.702704 -3.81741,-2.522982"
         id="path28" /><path
         style="fill:none;fill-opacity:1;stroke:#fdda24;stroke-width:1.78993;stroke-linecap:round;stroke-dasharray:none;stroke-opacity:1"
         d="m 137.95204,62.504767 c -1.01794,-0.78693 -2.06436,-1.576303 -3.1354,-2.36126"
         id="path27" /><path
         style="fill:none;fill-opacity:1;stroke:#fdda24;stroke-width:1.78993;stroke-linecap:round;stroke-dasharray:none;stroke-opacity:1"
         d="m 145.02953,68.285781 c -1.0883,-0.93596 -2.23918,-1.904191 -3.44453,-2.890307"
         id="path26" /><path
         style="fill:none;fill-opacity:1;stroke:#fdda24;stroke-width:1.78993;stroke-linecap:round;stroke-dasharray:none;stroke-opacity:1"
         d="m 150.75624,73.411097 c -0.87336,-0.812555 -1.83958,-1.697112 -2.88832,-2.635275"
         id="path25" /><path
         style="fill:none;fill-opacity:1;stroke:#fdda24;stroke-width:1.78993;stroke-linecap:round;stroke-dasharray:none;stroke-opacity:1"
         d="m 156.05165,78.492723 c -0.27353,-0.243153 -1.32822,-1.308697 -3.00882,-2.921094"
         id="path17" /></g></g></svg>
